<svg width="13" height="8" viewBox="0 0 13 8" fill="none" xmlns="http://www.w3.org/2000/svg">
<path fill-rule="evenodd" clip-rule="evenodd" d="M7.6286 1.99289C7.42969 1.99289 7.23892 1.91387 7.09827 1.77322C6.95762 1.63257 6.8786 1.4418 6.8786 1.24289C6.8786 1.04398 6.95762 0.853212 7.09827 0.712559C7.23892 0.571907 7.42969 0.492889 7.6286 0.492889H11.3786C11.5775 0.492889 11.7683 0.571907 11.9089 0.712559C12.0496 0.853212 12.1286 1.04398 12.1286 1.24289V4.99289C12.1286 5.1918 12.0496 5.38257 11.9089 5.52322C11.7683 5.66387 11.5775 5.74289 11.3786 5.74289C11.1797 5.74289 10.9889 5.66387 10.8483 5.52322C10.7076 5.38257 10.6286 5.1918 10.6286 4.99289V3.05339L7.40885 6.27314C7.26821 6.41374 7.07747 6.49273 6.8786 6.49273C6.67973 6.49273 6.489 6.41374 6.34835 6.27314L4.6286 4.55339L1.40885 7.77314C1.2674 7.90976 1.07795 7.98535 0.8813 7.98364C0.684653 7.98194 0.496543 7.90306 0.357487 7.764C0.218431 7.62495 0.139555 7.43684 0.137846 7.24019C0.136137 7.04354 0.211733 6.85409 0.348351 6.71264L4.09835 2.96264C4.239 2.82204 4.42973 2.74305 4.6286 2.74305C4.82747 2.74305 5.01821 2.82204 5.15885 2.96264L6.8786 4.68239L9.5681 1.99289H7.6286Z" fill="white"/>
</svg>
