<svg width="19" height="19" viewBox="0 0 19 19" fill="none" xmlns="http://www.w3.org/2000/svg">
<g clip-path="url(#clip0_1_9863)">
<path d="M1.04773 12.286V6.14313C1.04773 5.93948 1.12863 5.74417 1.27263 5.60017C1.41663 5.45617 1.61194 5.37527 1.81559 5.37527C2.01923 5.37527 2.21454 5.45617 2.35854 5.60017C2.50254 5.74417 2.58344 5.93948 2.58344 6.14313V12.286C2.58344 12.4896 2.50254 12.6849 2.35854 12.8289C2.21454 12.9729 2.01923 13.0538 1.81559 13.0538C1.61194 13.0538 1.41663 12.9729 1.27263 12.8289C1.12863 12.6849 1.04773 12.4896 1.04773 12.286ZM6.42273 15.3574V3.0717C6.42273 2.86805 6.34183 2.67274 6.19783 2.52874C6.05383 2.38474 5.85852 2.30384 5.65487 2.30384C5.45122 2.30384 5.25592 2.38474 5.11191 2.52874C4.96791 2.67274 4.88701 2.86805 4.88701 3.0717V15.3574C4.88701 15.5611 4.96791 15.7564 5.11191 15.9004C5.25592 16.0444 5.45122 16.1253 5.65487 16.1253C5.85852 16.1253 6.05383 16.0444 6.19783 15.9004C6.34183 15.7564 6.42273 15.5611 6.42273 15.3574ZM10.262 16.8931V1.53598C10.262 1.33234 10.1811 1.13703 10.0371 0.993028C9.89311 0.849026 9.69781 0.768127 9.49416 0.768127C9.29051 0.768127 9.0952 0.849026 8.9512 0.993028C8.8072 1.13703 8.7263 1.33234 8.7263 1.53598V16.8931C8.7263 17.0968 8.8072 17.2921 8.9512 17.4361C9.0952 17.5801 9.29051 17.661 9.49416 17.661C9.69781 17.661 9.89311 17.5801 10.0371 17.4361C10.1811 17.2921 10.262 17.0968 10.262 16.8931ZM14.1013 15.3574V3.0717C14.1013 2.86805 14.0204 2.67274 13.8764 2.52874C13.7324 2.38474 13.5371 2.30384 13.3334 2.30384C13.1298 2.30384 12.9345 2.38474 12.7905 2.52874C12.6465 2.67274 12.5656 2.86805 12.5656 3.0717V15.3574C12.5656 15.5611 12.6465 15.7564 12.7905 15.9004C12.9345 16.0444 13.1298 16.1253 13.3334 16.1253C13.5371 16.1253 13.7324 16.0444 13.8764 15.9004C14.0204 15.7564 14.1013 15.5611 14.1013 15.3574ZM17.1727 5.37527C16.9691 5.37527 16.7738 5.45617 16.6298 5.60017C16.4858 5.74417 16.4049 5.93948 16.4049 6.14313V12.286C16.4049 12.4896 16.4858 12.6849 16.6298 12.8289C16.7738 12.9729 16.9691 13.0538 17.1727 13.0538C17.3764 13.0538 17.5717 12.9729 17.7157 12.8289C17.8597 12.6849 17.9406 12.4896 17.9406 12.286V6.14313C17.9406 5.93948 17.8597 5.74417 17.7157 5.60017C17.5717 5.45617 17.3764 5.37527 17.1727 5.37527Z" fill="#6165D7"/>
</g>
<defs>
<clipPath id="clip0_1_9863">
<rect width="18.4286" height="18.4286" fill="white" transform="translate(0.279785 0.000183105)"/>
</clipPath>
</defs>
</svg>
