<svg width="24" height="23" viewBox="0 0 24 23" fill="none" xmlns="http://www.w3.org/2000/svg">
<path d="M14.6742 16.0604H19.3649L18.0469 14.7424C17.6894 14.385 17.4886 13.9002 17.4886 13.3946V10.4315C17.4886 7.98068 15.9223 5.89566 13.736 5.12293V4.80263C13.736 3.76638 12.896 2.92633 11.8597 2.92633C10.8234 2.92633 9.9834 3.76638 9.9834 4.80263V5.12293C7.79715 5.89566 6.23079 7.98068 6.23079 10.4315V13.3946C6.23079 13.9002 6.02998 14.385 5.67253 14.7424L4.35449 16.0604H9.04525M14.6742 16.0604V16.9986C14.6742 18.553 13.4141 19.813 11.8597 19.813C10.3053 19.813 9.04525 18.553 9.04525 16.9986V16.0604M14.6742 16.0604H9.04525" stroke="#3F3F46" stroke-width="1.08075" stroke-linecap="round" stroke-linejoin="round"/>
</svg>
