<svg width="18" height="19" viewBox="0 0 18 19" fill="none" xmlns="http://www.w3.org/2000/svg">
<path fill-rule="evenodd" clip-rule="evenodd" d="M4.34729 11.1179C4.34729 10.8072 4.58514 10.5554 4.87854 10.5554H10.5452C10.8386 10.5554 11.0765 10.8072 11.0765 11.1179C11.0765 11.4286 10.8386 11.6804 10.5452 11.6804H4.87854C4.58514 11.6804 4.34729 11.4286 4.34729 11.1179Z" fill="white"/>
<path fill-rule="evenodd" clip-rule="evenodd" d="M4.34729 13.7429C4.34729 13.4322 4.58514 13.1804 4.87854 13.1804H8.77437C9.06776 13.1804 9.30562 13.4322 9.30562 13.7429C9.30562 14.0536 9.06776 14.3054 8.77437 14.3054H4.87854C4.58514 14.3054 4.34729 14.0536 4.34729 13.7429Z" fill="white"/>
<path fill-rule="evenodd" clip-rule="evenodd" d="M9.30558 2.36853C8.97947 2.30985 8.53492 2.3054 7.73294 2.3054C6.37529 2.3054 5.41028 2.30658 4.67864 2.41026C3.96189 2.51184 3.55004 2.70236 3.25068 3.01933C2.9509 3.33673 2.77122 3.77147 2.67541 4.52604C2.57754 5.29678 2.57642 6.31279 2.57642 7.74294V10.7429C2.57642 12.173 2.57754 13.189 2.67541 13.9598C2.77122 14.7143 2.9509 15.149 3.25068 15.4664C3.55045 15.7839 3.96104 15.9741 4.67368 16.0756C5.40161 16.1792 6.36117 16.1804 7.71183 16.1804H10.5452C11.8958 16.1804 12.8554 16.1792 13.5833 16.0756C14.2959 15.9741 14.7066 15.7839 15.0063 15.4664C15.3061 15.149 15.4858 14.7143 15.5816 13.9598C15.6794 13.189 15.6806 12.173 15.6806 10.7429V10.415C15.6806 9.26304 15.6729 8.71696 15.5575 8.30544H13.3405C12.5381 8.30544 11.8823 8.30544 11.3646 8.23171C10.8235 8.15469 10.3543 7.98796 9.97984 7.59148C9.60535 7.19495 9.44789 6.6982 9.37514 6.12524C9.30558 5.57709 9.30558 4.88279 9.30558 4.03317V2.36853ZM10.3681 2.94999V3.9929C10.3681 4.89268 10.3692 5.51094 10.4281 5.97533C10.4851 6.42354 10.587 6.64332 10.7312 6.79598C10.8753 6.94863 11.0829 7.05651 11.5062 7.11677C11.9448 7.17921 12.5287 7.1804 13.3785 7.1804H14.809C14.599 6.96474 14.3299 6.70634 13.9806 6.37341L11.1764 3.70124C10.8326 3.37361 10.5768 3.13176 10.3681 2.94999ZM7.83614 1.18038C8.8169 1.1801 9.45051 1.17993 10.0337 1.41688C10.6168 1.65383 11.0858 2.10087 11.8112 2.79252C11.8362 2.8164 11.8615 2.84057 11.8872 2.86503L14.6913 5.5372C14.7212 5.56565 14.7507 5.59374 14.7798 5.62148C15.6182 6.41997 16.1604 6.9363 16.452 7.62963C16.7436 8.32291 16.7434 9.09504 16.7431 10.289C16.7431 10.3305 16.7431 10.3725 16.7431 10.415V10.7852C16.7431 12.1635 16.7431 13.2553 16.6346 14.1097C16.5229 14.989 16.2877 15.7007 15.7576 16.262C15.2275 16.8233 14.5553 17.0723 13.7249 17.1905C12.9179 17.3054 11.8869 17.3054 10.5851 17.3054H7.67188C6.37013 17.3054 5.33905 17.3054 4.53211 17.1905C3.70165 17.0723 3.02947 16.8233 2.49938 16.262C1.96929 15.7007 1.73404 14.989 1.62239 14.1097C1.5139 13.2553 1.5139 12.1635 1.51392 10.7852V7.70059C1.5139 6.32227 1.5139 5.23054 1.62239 4.37614C1.73404 3.49682 1.96929 2.78511 2.49938 2.22383C3.02988 1.66212 3.70431 1.41331 4.5377 1.29521C5.348 1.18038 6.3842 1.18038 7.69308 1.1804H7.73294C7.76772 1.1804 7.80214 1.18039 7.83614 1.18038Z" fill="white"/>
</svg>
