<svg width="23" height="24" viewBox="0 0 23 24" fill="none" xmlns="http://www.w3.org/2000/svg">
<path d="M7.28014 9.13804L1.87865 14.4059C0.0369036 16.2021 0.0744805 19.201 2.01301 21.042L2.9431 21.9253C4.88148 23.7662 7.90166 23.6712 9.62829 21.7656L14.692 16.177C16.2268 14.4831 16.0126 11.7794 14.2526 10.1079L13.4082 9.30601C11.648 7.6344 8.91731 7.54138 7.28014 9.13804ZM8.29916 20.5034C7.23712 21.6507 5.40451 21.6932 4.23147 20.5792L3.31109 19.7051C2.13805 18.5911 2.09985 16.7719 3.20779 15.6682L8.55126 10.3452C9.54715 9.35314 11.2292 9.39826 12.316 10.4304L13.1686 11.2401C14.2554 12.2722 14.3751 13.9382 13.4205 14.9694L8.29916 20.5034Z" fill="#678AD9"/>
<path d="M14.9052 6.09728L10.089 10.9854C8.45131 12.6476 8.58516 15.4604 10.4301 17.2125L11.3153 18.0532C13.1603 19.8053 15.941 19.7604 17.4741 17.999L21.983 12.8189C23.3532 11.2446 23.0727 8.69431 21.3902 7.09639L20.5828 6.32967C18.9004 4.73189 16.3689 4.61171 14.9052 6.09728ZM16.2073 16.7959C15.2638 17.8571 13.5755 17.8708 12.4583 16.8099L11.5819 15.9775C10.4648 14.9166 10.3701 13.2096 11.3555 12.1882L16.1191 7.25007C17.0091 6.32753 18.5674 6.39043 19.606 7.37681L20.4208 8.15064C21.4595 9.13701 21.6212 10.7078 20.769 11.666L16.2073 16.7959Z" fill="url(#paint0_linear_1_9848)"/>
<path d="M15.7189 13.3047C15.1693 13.3549 14.617 13.4059 14.0617 13.4561C14.1121 12.6714 13.8083 11.8477 13.1687 11.2403L12.3161 10.4306C11.2293 9.39847 9.54728 9.35335 8.55138 10.3454L3.20791 15.6684C2.09998 16.7721 2.13802 18.5912 3.31122 19.7053L3.54609 19.9284C3.46518 19.9408 3.38411 19.9531 3.30303 19.9648C2.64367 20.0609 1.97752 20.1369 1.30603 20.1984C0.102331 18.3711 0.299929 15.9459 1.87878 14.4061L7.28026 9.13825C8.91744 7.54159 11.6482 7.63462 13.4082 9.30608L14.2526 10.108C15.1824 10.991 15.6788 12.1549 15.7189 13.3047Z" fill="#678AD9"/>
<defs>
<linearGradient id="paint0_linear_1_9848" x1="14.8013" y1="19.4426" x2="16.9778" y2="4.9309" gradientUnits="userSpaceOnUse">
<stop stop-color="#AA80F9"/>
<stop offset="0.9964" stop-color="#6165D7"/>
</linearGradient>
</defs>
</svg>
