<svg width="13" height="14" viewBox="0 0 13 14" fill="none" xmlns="http://www.w3.org/2000/svg">
<path d="M0.890045 1.26087C0.890045 0.971308 1.12478 0.736572 1.41434 0.736572H4.03583C4.32539 0.736572 4.56012 0.971308 4.56012 1.26087V12.7954C4.56012 13.085 4.32539 13.3197 4.03583 13.3197H1.41434C1.12478 13.3197 0.890045 13.085 0.890045 12.7954V1.26087Z" fill="white"/>
<path d="M9.27879 1.26087C9.27879 0.971308 9.51353 0.736572 9.80309 0.736572H12.4246C12.7141 0.736572 12.9489 0.971308 12.9489 1.26087V12.7954C12.9489 13.085 12.7141 13.3197 12.4246 13.3197H9.80309C9.51353 13.3197 9.27879 13.085 9.27879 12.7954V1.26087Z" fill="white"/>
</svg>
