<svg width="19" height="17" viewBox="0 0 19 17" fill="none" xmlns="http://www.w3.org/2000/svg">
<path d="M18.9583 15.7895L14.3057 8.0916C14.2585 8.01386 14.1796 7.96763 14.0948 7.96763C14.0101 7.96763 13.9302 8.01386 13.883 8.0916L11.2072 12.5162L6.82518 5.26581C6.778 5.18807 6.69905 5.14185 6.61432 5.14185C6.52959 5.14185 6.44967 5.18807 6.40346 5.26581L0.0417867 15.7885C-0.00924529 15.8735 -0.0140592 15.8903 0.0302327 15.9796C0.0745246 16.0689 0.16022 16.0332 0.252655 16.0332H8.97045H13.4449H18.7474C18.8408 16.0332 18.9265 16.0689 18.9698 15.9796C19.0132 15.8903 19.0103 15.8746 18.9583 15.7895Z" fill="#678AD9"/>
<path d="M14.9873 5.61561C16.4088 5.61561 17.5611 4.35846 17.5611 2.80768C17.5611 1.25691 16.4088 -0.000244141 14.9873 -0.000244141C13.5659 -0.000244141 12.4136 1.25691 12.4136 2.80768C12.4136 4.35846 13.5659 5.61561 14.9873 5.61561Z" fill="#678AD9"/>
</svg>
