<svg width="20" height="20" viewBox="0 0 20 20" fill="none" xmlns="http://www.w3.org/2000/svg">
<path d="M14.6111 6.83801C14.6111 5.58559 14.1136 4.38448 13.228 3.49889C12.3424 2.6133 11.1413 2.11578 9.88891 2.11578C8.63649 2.11578 7.43538 2.6133 6.54979 3.49889C5.6642 4.38448 5.16668 5.58559 5.16668 6.83801C5.16668 12.3473 2.80557 13.9213 2.80557 13.9213H16.9722C16.9722 13.9213 14.6111 12.3473 14.6111 6.83801Z" stroke="white" stroke-width="1.57407" stroke-linecap="round" stroke-linejoin="round"/>
<path d="M11.2505 17.0695C11.1121 17.308 10.9135 17.506 10.6745 17.6436C10.4356 17.7813 10.1646 17.8537 9.88889 17.8537C9.61313 17.8537 9.3422 17.7813 9.10325 17.6436C8.86429 17.506 8.66568 17.308 8.52731 17.0695" stroke="white" stroke-width="1.57407" stroke-linecap="round" stroke-linejoin="round"/>
</svg>
