<svg width="20" height="20" viewBox="0 0 20 20" fill="none" xmlns="http://www.w3.org/2000/svg">
<path d="M11.463 1.89349H5.16669C4.74922 1.89349 4.34885 2.05933 4.05366 2.35453C3.75846 2.64973 3.59262 3.0501 3.59262 3.46757V16.0602C3.59262 16.4776 3.75846 16.878 4.05366 17.1732C4.34885 17.4684 4.74922 17.6342 5.16669 17.6342H14.6111C15.0286 17.6342 15.429 17.4684 15.7242 17.1732C16.0194 16.878 16.1852 16.4776 16.1852 16.0602V6.61572L11.463 1.89349Z" stroke="white" stroke-width="1.57407" stroke-linecap="round" stroke-linejoin="round"/>
<path d="M13.037 13.6991H6.74075" stroke="white" stroke-width="1.57407" stroke-linecap="round" stroke-linejoin="round"/>
<path d="M13.037 10.5509H6.74075" stroke="white" stroke-width="1.57407" stroke-linecap="round" stroke-linejoin="round"/>
<path d="M8.31483 7.40277H7.52779H6.74075" stroke="white" stroke-width="1.57407" stroke-linecap="round" stroke-linejoin="round"/>
<path d="M11.463 1.89349V6.61572H16.1852" stroke="white" stroke-width="1.57407" stroke-linecap="round" stroke-linejoin="round"/>
</svg>
