<svg width="18" height="19" viewBox="0 0 18 19" fill="none" xmlns="http://www.w3.org/2000/svg">
<path fill-rule="evenodd" clip-rule="evenodd" d="M2.59296 3.08864C6.07202 -0.385508 11.7276 -0.348566 15.2278 3.15177C18.7297 6.65361 18.7652 12.3125 15.2865 15.7912C11.8078 19.2698 6.14893 19.2343 2.64709 15.7325C0.571898 13.6573 -0.285047 10.8262 0.0829303 8.14157C0.134493 7.76537 0.481249 7.50226 0.857422 7.55382C1.2336 7.60539 1.49675 7.9521 1.4452 8.3283C1.13355 10.6019 1.85883 12.9997 3.61937 14.7603C6.59347 17.7344 11.3817 17.7514 14.3142 14.8188C17.2467 11.8863 17.2297 7.09815 14.2555 4.12404C11.283 1.15145 6.49815 1.13291 3.56524 4.06091L4.25063 4.06436C4.63032 4.06626 4.93657 4.37561 4.93466 4.7553C4.93276 5.135 4.62341 5.44125 4.24372 5.43934L1.9103 5.42762C1.5333 5.42572 1.22816 5.12057 1.22626 4.74358L1.21454 2.41015C1.21262 2.03047 1.51888 1.72112 1.89857 1.7192C2.27826 1.7173 2.58761 2.02356 2.58952 2.40325L2.59296 3.08864ZM8.93741 5.0879C9.31709 5.0879 9.62491 5.39571 9.62491 5.7754V9.15733L11.7152 11.2476C11.9837 11.5161 11.9837 11.9514 11.7152 12.2198C11.4467 12.4883 11.0114 12.4883 10.743 12.2198L8.24991 9.72685V5.7754C8.24991 5.39571 8.55772 5.0879 8.93741 5.0879Z" fill="white"/>
</svg>
