<svg width="20" height="20" viewBox="0 0 20 20" fill="none" xmlns="http://www.w3.org/2000/svg">
<path d="M17.1375 13.1958C16.6368 14.3799 15.8537 15.4233 14.8566 16.2348C13.8595 17.0463 12.6788 17.6012 11.4177 17.851C10.1566 18.1007 8.8535 18.0378 7.62236 17.6676C6.39121 17.2974 5.26949 16.6313 4.35526 15.7274C3.44104 14.8236 2.76214 13.7096 2.37792 12.4827C1.99371 11.2559 1.91588 9.95361 2.15123 8.68974C2.38658 7.42588 2.92795 6.2389 3.72802 5.2326C4.52808 4.2263 5.56247 3.4313 6.74076 2.91711" stroke="white" stroke-width="1.57407" stroke-linecap="round" stroke-linejoin="round"/>
<path d="M17.7593 10.1343C17.7593 9.1007 17.5557 8.07727 17.1602 7.1224C16.7647 6.16752 16.1849 5.29989 15.4541 4.56906C14.7233 3.83823 13.8557 3.2585 12.9008 2.86298C11.9459 2.46746 10.9225 2.26389 9.88892 2.26389V10.1343H17.7593Z" stroke="white" stroke-width="1.57407" stroke-linecap="round" stroke-linejoin="round"/>
</svg>
