<svg width="20" height="19" viewBox="0 0 20 19" fill="none" xmlns="http://www.w3.org/2000/svg">
<g clip-path="url(#clip0_1_9924)">
<path d="M9.88891 11.8285C11.1929 11.8285 12.25 10.7714 12.25 9.46743C12.25 8.16343 11.1929 7.10632 9.88891 7.10632C8.58491 7.10632 7.5278 8.16343 7.5278 9.46743C7.5278 10.7714 8.58491 11.8285 9.88891 11.8285Z" stroke="white" stroke-width="1.57407" stroke-linecap="round" stroke-linejoin="round"/>
<path d="M15.713 11.8286C15.6082 12.066 15.577 12.3293 15.6233 12.5846C15.6696 12.8399 15.7913 13.0755 15.9727 13.261L16.0199 13.3082C16.1663 13.4544 16.2824 13.628 16.3616 13.8191C16.4408 14.0102 16.4816 14.215 16.4816 14.4219C16.4816 14.6287 16.4408 14.8335 16.3616 15.0246C16.2824 15.2157 16.1663 15.3893 16.0199 15.5355C15.8737 15.6819 15.7001 15.798 15.509 15.8772C15.318 15.9564 15.1131 15.9972 14.9063 15.9972C14.6994 15.9972 14.4946 15.9564 14.3035 15.8772C14.1124 15.798 13.9388 15.6819 13.7926 15.5355L13.7454 15.4883C13.5599 15.3069 13.3243 15.1851 13.069 15.1388C12.8137 15.0926 12.5504 15.1238 12.313 15.2286C12.0802 15.3283 11.8817 15.494 11.7418 15.7052C11.602 15.9163 11.527 16.1637 11.5259 16.417V16.5508C11.5259 16.9683 11.3601 17.3686 11.0649 17.6638C10.7697 17.959 10.3693 18.1249 9.95188 18.1249C9.53441 18.1249 9.13403 17.959 8.83884 17.6638C8.54364 17.3686 8.3778 16.9683 8.3778 16.5508V16.48C8.37171 16.2195 8.28739 15.9668 8.1358 15.7549C7.98421 15.5429 7.77236 15.3815 7.5278 15.2915C7.29042 15.1868 7.02709 15.1555 6.77178 15.2018C6.51647 15.2481 6.28088 15.3698 6.09539 15.5513L6.04817 15.5985C5.90198 15.7448 5.72838 15.8609 5.53729 15.9402C5.3462 16.0194 5.14137 16.0601 4.93452 16.0601C4.72766 16.0601 4.52283 16.0194 4.33174 15.9402C4.14065 15.8609 3.96705 15.7448 3.82086 15.5985C3.67451 15.4523 3.5584 15.2787 3.47919 15.0876C3.39998 14.8965 3.3592 14.6917 3.3592 14.4848C3.3592 14.278 3.39998 14.0731 3.47919 13.882C3.5584 13.691 3.67451 13.5174 3.82086 13.3712L3.86808 13.3239C4.04952 13.1385 4.17124 12.9029 4.21753 12.6476C4.26382 12.3922 4.23257 12.1289 4.1278 11.8915C4.02804 11.6588 3.86238 11.4602 3.65122 11.3204C3.44007 11.1806 3.19263 11.1055 2.93938 11.1045H2.80558C2.38811 11.1045 1.98774 10.9387 1.69254 10.6435C1.39735 10.3483 1.23151 9.9479 1.23151 9.53043C1.23151 9.11296 1.39735 8.71259 1.69254 8.41739C1.98774 8.12219 2.38811 7.95635 2.80558 7.95635H2.87641C3.13692 7.95026 3.38957 7.86594 3.60151 7.71435C3.81345 7.56276 3.97489 7.35091 4.06484 7.10635C4.16961 6.86897 4.20086 6.60565 4.15457 6.35034C4.10827 6.09502 3.98656 5.85944 3.80512 5.67395L3.7579 5.62672C3.61154 5.48054 3.49544 5.30693 3.41623 5.11584C3.33701 4.92475 3.29624 4.71993 3.29624 4.51307C3.29624 4.30621 3.33701 4.10138 3.41623 3.91029C3.49544 3.7192 3.61154 3.5456 3.7579 3.39941C3.90408 3.25306 4.07769 3.13696 4.26878 3.05774C4.45987 2.97853 4.66469 2.93776 4.87155 2.93776C5.07841 2.93776 5.28324 2.97853 5.47433 3.05774C5.66542 3.13696 5.83902 3.25306 5.98521 3.39941L6.03243 3.44663C6.21792 3.62807 6.45351 3.74979 6.70882 3.79608C6.96413 3.84237 7.22746 3.81112 7.46484 3.70635H7.5278C7.76058 3.60659 7.95911 3.44093 8.09895 3.22978C8.23879 3.01862 8.31383 2.77119 8.31484 2.51793V2.38413C8.31484 1.96666 8.48068 1.56629 8.77587 1.27109C9.07107 0.975898 9.47144 0.810059 9.88891 0.810059C10.3064 0.810059 10.7068 0.975898 11.002 1.27109C11.2971 1.56629 11.463 1.96666 11.463 2.38413V2.45497C11.464 2.70822 11.539 2.95566 11.6789 3.16681C11.8187 3.37797 12.0172 3.54362 12.25 3.64339C12.4874 3.74816 12.7507 3.77941 13.006 3.73312C13.2614 3.68682 13.4969 3.56511 13.6824 3.38367L13.7297 3.33645C13.8758 3.1901 14.0494 3.07399 14.2405 2.99478C14.4316 2.91557 14.6365 2.87479 14.8433 2.87479C15.0502 2.87479 15.255 2.91557 15.4461 2.99478C15.6372 3.07399 15.8108 3.1901 15.957 3.33645C16.1033 3.48264 16.2194 3.65624 16.2986 3.84733C16.3778 4.03842 16.4186 4.24325 16.4186 4.4501C16.4186 4.65696 16.3778 4.86179 16.2986 5.05288C16.2194 5.24397 16.1033 5.41757 15.957 5.56376L15.9097 5.61098C15.7283 5.79647 15.6066 6.03206 15.5603 6.28737C15.514 6.54268 15.5453 6.80601 15.65 7.04339V7.10635C15.7498 7.33914 15.9154 7.53766 16.1266 7.6775C16.3378 7.81734 16.5852 7.89238 16.8384 7.89339H16.9722C17.3897 7.89339 17.7901 8.05923 18.0853 8.35443C18.3805 8.64962 18.5463 9.04999 18.5463 9.46747C18.5463 9.88494 18.3805 10.2853 18.0853 10.5805C17.7901 10.8757 17.3897 11.0415 16.9722 11.0415H16.9014C16.6482 11.0425 16.4007 11.1176 16.1896 11.2574C15.9784 11.3973 15.8128 11.5958 15.713 11.8286V11.8286Z" stroke="white" stroke-width="1.57407" stroke-linecap="round" stroke-linejoin="round"/>
</g>
<defs>
<clipPath id="clip0_1_9924">
<rect width="18.8889" height="18.8889" fill="white" transform="translate(0.444458 0.0230103)"/>
</clipPath>
</defs>
</svg>
